<svg viewBox="63 37 186 168" xmlns="http://www.w3.org/2000/svg">
<defs>
<linearGradient id="g0" x1="189" y1="204" x2="111.374" y2="36.29" gradientUnits="userSpaceOnUse">
<stop stop-color="#3E97FE"/>
<stop offset="1" stop-color="#4255FF"/>
</linearGradient>
</defs>
<path fill-rule="evenodd" clip-rule="evenodd" d="M64.8141 49.6468C63.826 48.748 63.7237 47.2295 64.5822 46.2063C65.4408 45.1831 66.954 45.0201 68.0107 45.8371L86.08 59.8074C88.5393 61.7088 92.03 61.3899 94.2753 59.2401C100.631 53.1549 107.948 48.0689 115.992 44.2152C132.741 36.1905 151.683 33.9653 169.836 37.89C187.988 41.8147 204.319 51.6664 216.257 65.8934C220.501 70.9512 219.842 78.4919 214.784 82.736C209.726 86.98 202.185 86.3203 197.941 81.2624C189.414 71.1003 177.749 64.0634 164.783 61.26C151.817 58.4567 138.286 60.0461 126.323 65.778C122.036 67.8318 118.038 70.3756 114.399 73.3402C111.626 75.5993 111.924 79.789 114.754 81.977L135.165 97.7572C137.246 99.3666 140.108 99.3518 142.499 98.2533C150.638 94.5137 160.552 95.5222 167.869 101.662C174.664 107.364 177.49 116.041 176.04 124.19C175.579 126.779 176.286 129.55 178.367 131.159L198.059 146.384C200.889 148.572 205.019 147.806 206.507 144.554C207.514 142.353 208.39 140.085 209.128 137.759C211.124 131.466 217.845 127.982 224.138 129.979C230.432 131.975 233.915 138.695 231.919 144.989C230.203 150.397 227.953 155.583 225.219 160.479C223.704 163.194 224.274 166.652 226.734 168.554L245.97 183.426C251.131 187.417 251.937 194.899 247.743 199.897C243.55 204.894 236.041 205.4 231.215 201.01L213.228 184.649C210.929 182.557 207.424 182.596 205.014 184.56C203.292 185.963 201.51 187.301 199.671 188.569C184.384 199.115 166.022 204.276 147.479 203.24C128.936 202.203 111.265 195.027 97.2486 182.843C83.2321 170.659 73.667 154.158 70.0597 135.94C66.4523 117.721 69.0078 98.8206 77.3236 82.2143C78.8907 79.0848 80.6457 76.0703 82.574 73.1849C84.3014 70.6004 84.0092 67.1073 81.7097 65.0155L64.8141 49.6468ZM108.522 89.4046C105.876 86.9976 101.698 87.4308 99.9546 90.5544C99.5205 91.3322 99.1031 92.121 98.7028 92.9203C92.763 104.782 90.9376 118.282 93.5143 131.295C96.0909 144.308 102.923 156.095 112.935 164.798C122.947 173.501 135.569 178.626 148.814 179.367C162.059 180.107 175.174 176.421 186.094 168.888C189.031 166.862 189.068 162.672 186.428 160.271L168.003 143.51C166.057 141.741 163.205 141.525 160.735 142.429C152.962 145.272 143.926 143.996 137.131 138.294C129.814 132.154 127.099 122.566 129.369 113.902C130.035 111.356 129.553 108.535 127.607 106.765L108.522 89.4046Z" fill="url(#g0)"/>
<path d="M230.465 96.9129C235.523 101.157 236.183 108.698 231.939 113.755C227.695 118.813 220.154 119.473 215.096 115.229C210.039 110.985 209.379 103.444 213.623 98.3864C217.867 93.3285 225.408 92.6688 230.465 96.9129Z" fill="url(#g0)"/>
</svg>
